<svg width="120" height="140" viewBox="0 0 120 140" fill="none" xmlns="http://www.w3.org/2000/svg">
<path d="M30.7158 16.4949C6.87635 29.3567 2.02016 32.4661 3.78605 33.7382C5.11046 34.5862 18.2075 41.7945 33.0703 49.7094L60.1473 64.126L87.96 49.1441C103.411 40.9464 116.508 33.7382 117.097 33.1728C117.686 32.4661 107.385 26.2472 94.1406 19.1803C81.0436 12.1134 67.7994 5.18779 65.0034 3.63306L60.0001 0.80629L30.7158 16.4949ZM75.5988 23.9858C83.5452 28.226 90.1673 32.1835 90.1673 32.7488C90.0202 33.3142 83.3981 37.2716 75.1573 41.5118L60.1473 49.4268L45.7258 41.7945C37.7794 37.5543 31.0101 33.5968 30.5687 33.0315C29.8329 31.9008 56.9098 16.3535 59.8529 16.2122C60.4416 16.0709 67.6523 19.6043 75.5988 23.9858Z" fill="#6255A4"/>
<path d="M0.695682 62.854L1.13715 82.7827L30.5686 98.6126L60.1472 114.443L81.9265 102.711C93.8462 96.2099 104 90.9803 104.294 90.9803C104.589 90.9803 104.883 93.1004 104.883 95.6445C104.883 100.026 104.294 100.591 82.6622 112.04C63.3846 122.216 60 123.63 57.0569 122.358C55.1438 121.509 43.2241 115.149 30.4214 108.224C17.4716 101.298 5.55187 94.9378 3.78598 93.9484C0.401367 92.3937 0.401367 92.3937 0.401367 99.8847V107.517L29.6856 123.347C45.8729 131.969 59.5586 139.035 60 139.035C60.5887 139.035 74.1271 131.969 90.3144 123.347L119.599 107.658V87.4469V67.2355L90.6087 82.7827C74.5686 91.263 61.0301 98.3299 60.5887 98.4713C60.1472 98.6126 49.699 93.3831 37.485 86.8815C15.4114 75.2918 15.1171 75.1504 15.1171 70.3449C15.1171 64.6914 12.3211 63.702 41.6054 79.5319L59.8529 89.4256L71.0368 83.4894C77.0703 80.2386 90.4616 73.0303 100.763 67.6595L119.599 57.7658V50.2748C119.599 46.3173 119.304 42.9252 118.863 42.9252C118.421 42.9252 105.324 49.7095 89.8729 58.0484C74.5686 66.2461 61.0301 73.0303 60.1472 73.0303C59.1171 73.0303 45.7258 66.2461 30.2743 58.0484C14.6756 49.7095 1.72578 42.9252 1.13715 42.9252C0.695682 42.9252 0.548524 51.9709 0.695682 62.854Z" fill="#85D1A0"/>
</svg>
